<svg xmlns="http://www.w3.org/2000/svg" xmlns:xlink="http://www.w3.org/1999/xlink" viewBox="0 0 1024 1024"><defs><linearGradient id="a" x1="5566.26" y1="6257.39" x2="5566.26" y2="6405.62" gradientTransform="translate(-5157.08 -5801.05)" gradientUnits="userSpaceOnUse"><stop offset="0" stop-color="#413c39" stop-opacity="0"/><stop offset=".1" stop-color="#474240" stop-opacity=".04"/><stop offset=".25" stop-color="#585451" stop-opacity=".15"/><stop offset=".45" stop-color="#74716e" stop-opacity=".34"/><stop offset=".68" stop-color="#9b9896" stop-opacity=".59"/><stop offset=".93" stop-color="#cccac9" stop-opacity=".91"/><stop offset="1" stop-color="#d9d8d7"/></linearGradient><linearGradient id="b" x1="5421.89" y1="6422.15" x2="5421.89" y2="6570.37" gradientTransform="rotate(-90 35.445 6001.695)" xlink:href="#a"/><linearGradient id="c" x1="5267.86" y1="6294.03" x2="5267.86" y2="6442.26" gradientTransform="rotate(180 2941.28 3430.805)" xlink:href="#a"/></defs><g data-name="layer 1"><path d="M948.73 526.31a225 225 0 0 0-151.08-65.92H666.22a103.29 103.29 0 0 0 103.35 103.18H802v.06A122.54 122.54 0 0 1 876.09 599c48.09 48.06 48.09 126.3 0 174.42a123.23 123.23 0 0 1-209.72-73.94h.07l-.2-135.57V460.39H563.17v103.24H460.81V347.76c.24-68.76-19.26-123.18-65.88-169.76-88.11-88.08-231.5-88.08-319.67 0s-88.16 231.58 0 319.72a224.92 224.92 0 0 0 151.09 65.94h121c-68.8-.23-123.19 19.26-169.8 65.9-88.09 88.1-88.09 231.47 0 319.65s231.58 88.17 319.72 0a225 225 0 0 0 65.9-151.11V676.25c-.23 68.8 19.26 123.18 65.9 169.78 88.09 88.08 231.47 88.08 319.66 0s88.17-231.57 0-319.72zm-146.48 37.12v-.2l.06.07zM221.73 460.77l-.06-.07.06-.13zm32.67-.33H222v-.05A122.48 122.48 0 0 1 147.89 425c-48.08-48.05-48.08-126.3 0-174.4a123.25 123.25 0 0 1 209.73 73.93h-.09v239.1A103.11 103.11 0 0 0 254.4 460.44zm205.85 342.34l-.14-.07h.2zM460 770v32.44h-.05a122.52 122.52 0 0 1-35.34 74.09c-48.06 48.07-126.3 48.07-174.41 0a123.43 123.43 0 0 1 0-174.4 122.18 122.18 0 0 1 73.93-35.32v.06h239.04A103.12 103.12 0 0 0 460 770z" fill="#e84228"/><path d="M846.46 74.82c-88.14-88.17-231.58-88.17-319.73 0a225 225 0 0 0-65.92 151.08v131.22A103.12 103.12 0 0 0 564 254v-32.46h.07a122.43 122.43 0 0 1 35.33-74.07c48.06-48.1 126.29-48.1 174.41 0a123.4 123.4 0 0 1 0 174.39 122.11 122.11 0 0 1-73.93 35.33v-.07H460.81v103.25h215.86c68.8.23 123.19-19.26 169.79-65.9 88.08-88.08 88.08-231.47 0-319.65zm-282.8 146.49l.07-.07.13.07z" fill="#413c39"/><path style="mix-blend-mode:multiply" fill="url(#a)" d="M357.55 460.3H460.8v103.31H357.55z"/><path style="mix-blend-mode:multiply" fill="url(#b)" d="M459.86 563.61h103.31v103.27H459.86z"/><path style="mix-blend-mode:multiply" fill="url(#c)" d="M563.17 460.3h103.05v103.31H563.17z"/></g></svg>